<svg width="18" height="14" viewBox="0 0 18 14" fill="none" xmlns="http://www.w3.org/2000/svg">
<g clip-path="url(#clip0_31_353)">
<path d="M0 0H18V14H0V0Z" fill="#009440"/>
<path d="M1.53003 7.00001L9.00003 12.3L16.47 7.00001L9.00003 1.70001L1.53003 7.00001Z" fill="#FFCB00"/>
<path d="M8.99998 10.5C10.7397 10.5 12.15 8.933 12.15 7C12.15 5.067 10.7397 3.5 8.99998 3.5C7.26028 3.5 5.84998 5.067 5.84998 7C5.84998 8.933 7.26028 10.5 8.99998 10.5Z" fill="#302681"/>
<mask id="mask0_31_353" style="mask-type:luminance" maskUnits="userSpaceOnUse" x="5" y="3" width="8" height="8">
<path d="M8.99998 10.5C10.7397 10.5 12.15 8.933 12.15 7C12.15 5.067 10.7397 3.5 8.99998 3.5C7.26028 3.5 5.84998 5.067 5.84998 7C5.84998 8.933 7.26028 10.5 8.99998 10.5Z" fill="white"/>
</mask>
<g mask="url(#mask0_31_353)">
<path d="M-0.450073 14C-0.450073 11.7457 0.355907 9.58365 1.79056 7.98959C3.22521 6.39553 5.17102 5.5 7.19993 5.5C9.22883 5.5 11.1746 6.39553 12.6093 7.98959C14.0439 9.58365 14.8499 11.7457 14.8499 14H14.3999C14.3999 11.8783 13.6414 9.84344 12.2911 8.34315C10.9408 6.84285 9.10949 6 7.19993 6C5.29037 6 3.45902 6.84285 2.10876 8.34315C0.758496 9.84344 -7.32592e-05 11.8783 -7.32592e-05 14H-0.450073Z" fill="white"/>
</g>
<path fill-rule="evenodd" clip-rule="evenodd" d="M6.31338 5.97687C6.34891 5.97203 6.38107 5.94995 6.40277 5.9155C6.42447 5.88105 6.43394 5.83704 6.42909 5.79317C6.42424 5.7493 6.40548 5.70915 6.37692 5.68155C6.34836 5.65396 6.31235 5.64118 6.27682 5.64603C6.24128 5.65087 6.20912 5.67295 6.18742 5.7074C6.16572 5.74186 6.15625 5.78586 6.1611 5.82973C6.16595 5.8736 6.18472 5.91375 6.21327 5.94135C6.24183 5.96894 6.27784 5.98172 6.31338 5.97687M6.30659 5.91543C6.32746 5.91258 6.34626 5.8989 6.35887 5.87738C6.37147 5.85587 6.37684 5.82829 6.37379 5.80071C6.37074 5.77314 6.35953 5.74782 6.34262 5.73033C6.3257 5.71285 6.30448 5.70462 6.28361 5.70747C6.26273 5.71032 6.24393 5.724 6.23133 5.74552C6.21872 5.76703 6.21335 5.79461 6.2164 5.82219C6.21945 5.84976 6.23066 5.87508 6.24758 5.89257C6.26449 5.91005 6.28572 5.91828 6.30659 5.91543" fill="#009440"/>
<path fill-rule="evenodd" clip-rule="evenodd" d="M6.63094 5.94679L6.67142 5.92136L6.63648 5.83585L6.72367 5.78108C6.74184 5.76967 6.75615 5.7511 6.76346 5.72946C6.77076 5.70782 6.77046 5.68488 6.76262 5.66569C6.75478 5.6465 6.74004 5.63263 6.72164 5.62713C6.70325 5.62163 6.68271 5.62495 6.66454 5.63636L6.53998 5.7146L6.63094 5.94679ZM6.61901 5.79309L6.70309 5.74028C6.71052 5.73561 6.71638 5.72802 6.71936 5.71916C6.72235 5.71031 6.72223 5.70093 6.71902 5.69308C6.71581 5.68522 6.70978 5.67955 6.70226 5.6773C6.69473 5.67505 6.68633 5.67641 6.6789 5.68108L6.59482 5.73388L6.61901 5.79309Z" fill="#009440"/>
<path d="M6.81227 5.87544C6.79887 5.84406 6.76938 5.77504 6.71995 5.8028L6.65735 5.83795C6.72984 5.79725 6.75933 5.86627 6.77273 5.89764" fill="#009440"/>
<path fill-rule="evenodd" clip-rule="evenodd" d="M6.93797 5.9205L7.07938 5.91776C7.09626 5.91743 7.11292 5.91341 7.12841 5.90593C7.14389 5.89845 7.1579 5.88766 7.16962 5.87416C7.18135 5.86067 7.19058 5.84474 7.19676 5.82728C7.20295 5.80983 7.20598 5.79119 7.20569 5.77243L7.20494 5.72482C7.20465 5.70606 7.20103 5.68755 7.1943 5.67035C7.18757 5.65314 7.17785 5.63758 7.1657 5.62455C7.15356 5.61152 7.13922 5.60127 7.12351 5.5944C7.1078 5.58752 7.09103 5.58415 7.07415 5.58448L6.93274 5.58722L6.93797 5.9205ZM6.99271 5.85753L7.07412 5.85595C7.09572 5.85553 7.11628 5.8456 7.13128 5.82833C7.14628 5.81107 7.1545 5.7879 7.15412 5.76391L7.15367 5.73534C7.15329 5.71135 7.14435 5.6885 7.12882 5.67183C7.11328 5.65517 7.09243 5.64604 7.07083 5.64646L6.98942 5.64803L6.99271 5.85753Z" fill="#009440"/>
<path d="M7.319 5.91632L7.58883 5.92679L7.59078 5.86492L7.37234 5.85645L7.37503 5.77079L7.54636 5.77743L7.54815 5.72033L7.37683 5.71368L7.37892 5.64705L7.58451 5.65503L7.58645 5.59316L7.32947 5.58319L7.319 5.91632Z" fill="#009440"/>
<path d="M7.69956 5.9343L7.75079 5.93928L7.76872 5.71158L7.81057 5.94509L7.85753 5.94965L7.93523 5.72776L7.9173 5.95547L7.96853 5.96045L7.99468 5.62838L7.91997 5.62112L7.84227 5.84301L7.80042 5.6095L7.72571 5.60223L7.69956 5.9343Z" fill="#009440"/>
<path d="M8.3211 6.01222L8.54285 6.05456L8.55156 5.99824L8.38049 5.96558L8.3921 5.89049L8.53149 5.9171L8.5402 5.86078L8.40081 5.83417L8.4088 5.78255L8.57458 5.8142L8.58329 5.75788L8.36682 5.71655L8.3211 6.01222Z" fill="#009440"/>
<path fill-rule="evenodd" clip-rule="evenodd" d="M8.89083 6.13656L8.94477 6.15206L8.97267 6.03219L9.08885 6.06558C9.11305 6.07253 9.13876 6.06852 9.16031 6.05442C9.18185 6.04032 9.19747 6.01728 9.20374 5.99038C9.21 5.96348 9.20638 5.93492 9.19369 5.91098C9.181 5.88704 9.16027 5.86968 9.13606 5.86273L8.97009 5.81504L8.89083 6.13656ZM8.98662 5.97226L9.09865 6.00445C9.10855 6.0073 9.11907 6.00566 9.12788 5.99989C9.13669 5.99412 9.14308 5.98469 9.14565 5.97369C9.14821 5.96269 9.14673 5.951 9.14154 5.94121C9.13635 5.93141 9.12786 5.92431 9.11796 5.92147L9.00593 5.88928L8.98662 5.97226Z" fill="#009440"/>
<path fill-rule="evenodd" clip-rule="evenodd" d="M9.25888 6.19219L9.30586 6.22184L9.35044 6.12361L9.45163 6.18747C9.47272 6.20078 9.49691 6.20479 9.5189 6.19861C9.54088 6.19243 9.55885 6.17658 9.56885 6.15454C9.57886 6.13249 9.58008 6.10606 9.57224 6.08107C9.56441 6.05607 9.54816 6.03455 9.52707 6.02124L9.38252 5.93002L9.25888 6.19219ZM9.37273 6.0745L9.47031 6.13608C9.47893 6.14152 9.48883 6.14316 9.49782 6.14064C9.50682 6.13811 9.51417 6.13162 9.51826 6.1226C9.52235 6.11359 9.52285 6.10278 9.51965 6.09255C9.51644 6.08232 9.50979 6.07352 9.50117 6.06808L9.4036 6.0065L9.37273 6.0745Z" fill="#009440"/>
<path d="M9.48839 6.33085C9.50556 6.29377 9.54335 6.21218 9.48809 6.17894L9.41809 6.13684C9.49914 6.18559 9.46136 6.26718 9.44418 6.30426" fill="#009440"/>
<path fill-rule="evenodd" clip-rule="evenodd" d="M9.74771 6.42854C9.78124 6.44247 9.81894 6.43938 9.85251 6.41996C9.88607 6.40053 9.91276 6.36636 9.92669 6.32496C9.94062 6.28355 9.94066 6.23831 9.9268 6.19918C9.91293 6.16005 9.88631 6.13024 9.85277 6.11631C9.81923 6.10238 9.78153 6.10547 9.74797 6.12489C9.7144 6.14432 9.68772 6.17849 9.67379 6.21989C9.65986 6.2613 9.65982 6.30654 9.67368 6.34567C9.68754 6.3848 9.71417 6.4146 9.74771 6.42854M9.76722 6.37055C9.78691 6.37873 9.80928 6.37624 9.8294 6.36363C9.84952 6.35101 9.86575 6.3293 9.8745 6.30328C9.88326 6.27725 9.88383 6.24904 9.8761 6.22485C9.86836 6.20067 9.85295 6.18248 9.83326 6.1743C9.81356 6.16611 9.79119 6.16861 9.77107 6.18122C9.75095 6.19384 9.73473 6.21555 9.72597 6.24157C9.71722 6.2676 9.71664 6.29581 9.72438 6.32C9.73211 6.34418 9.74752 6.36237 9.76722 6.37055" fill="#009440"/>
<mask id="mask1_31_353" style="mask-type:luminance" maskUnits="userSpaceOnUse" x="9" y="6" width="2" height="1">
<path d="M9.97715 6.49146L10.1143 6.2215L10.3444 6.37686L10.2072 6.64683L9.97715 6.49146ZM10.1843 6.38788L10.1608 6.43416L10.2758 6.51185L10.2993 6.46557L10.1843 6.38788Z" fill="white"/>
</mask>
<g mask="url(#mask1_31_353)">
<path fill-rule="evenodd" clip-rule="evenodd" d="M10.0925 6.56999C10.1231 6.59039 10.1596 6.59564 10.194 6.5846C10.2285 6.57356 10.258 6.54713 10.2761 6.51112C10.2942 6.47511 10.2994 6.43248 10.2905 6.3926C10.2817 6.35271 10.2595 6.31885 10.2289 6.29846C10.1983 6.27806 10.1618 6.27281 10.1273 6.28385C10.0929 6.29489 10.0634 6.32132 10.0453 6.35733C10.0272 6.39333 10.022 6.43597 10.0309 6.47585C10.0397 6.51573 10.0619 6.5496 10.0925 6.56999M10.1178 6.51956C10.1358 6.53154 10.1575 6.53404 10.1783 6.5265C10.199 6.51897 10.2171 6.50202 10.2285 6.47939C10.2398 6.45675 10.2436 6.43029 10.2389 6.40581C10.2343 6.38134 10.2215 6.36086 10.2036 6.34888C10.1856 6.33691 10.1638 6.33441 10.1431 6.34194C10.1223 6.34948 10.1043 6.36643 10.0929 6.38906C10.0816 6.41169 10.0778 6.43816 10.0824 6.46263C10.0871 6.48711 10.0998 6.50759 10.1178 6.51956" fill="#009440"/>
</g>
<path d="M10.1815 6.44373L10.2845 6.49997L10.2663 6.53771L10.1633 6.48147L10.1815 6.44373Z" fill="#009440"/>
<path d="M10.2479 6.47504L10.2845 6.49963L10.2219 6.64687L10.1853 6.62227L10.2479 6.47504Z" fill="#009440"/>
<path fill-rule="evenodd" clip-rule="evenodd" d="M10.3252 6.67862L10.3738 6.71046L10.4258 6.60722L10.5305 6.67578C10.5523 6.69007 10.5778 6.69457 10.6015 6.68829C10.6252 6.68201 10.645 6.66547 10.6567 6.6423C10.6684 6.61914 10.6709 6.59124 10.6637 6.56476C10.6566 6.53828 10.6403 6.51537 10.6185 6.50109L10.4689 6.40314L10.3252 6.67862ZM10.4518 6.55561L10.5527 6.62172C10.5616 6.62757 10.5721 6.62941 10.5818 6.62684C10.5915 6.62427 10.5996 6.6175 10.6044 6.60802C10.6091 6.59855 10.6102 6.58714 10.6072 6.5763C10.6043 6.56547 10.5976 6.5561 10.5887 6.55025L10.4878 6.48414L10.4518 6.55561Z" fill="#009440"/>
<path d="M10.5506 6.82543C10.5706 6.786 10.6146 6.69926 10.5583 6.66289L10.4871 6.61682C10.5696 6.67016 10.5256 6.75691 10.5056 6.79634" fill="#009440"/>
<path d="M10.6649 6.8907L10.8999 7.03843L10.9273 6.98455L10.7371 6.86496L10.7751 6.79036L10.9243 6.88416L10.9496 6.83442L10.8004 6.74063L10.8299 6.6826L11.009 6.79516L11.0364 6.74128L10.8126 6.60059L10.6649 6.8907Z" fill="#009440"/>
<path d="M11.1025 7.0539C11.0864 7.08202 11.1027 7.11334 11.1389 7.13893C11.175 7.16451 11.1996 7.16359 11.21 7.14554C11.2428 7.08831 11.0531 7.00484 11.1116 6.90508C11.162 6.81937 11.2483 6.88607 11.2808 6.9091C11.3133 6.93213 11.3656 6.99169 11.325 7.06033L11.2698 7.02131C11.2871 6.99119 11.2681 6.96223 11.2392 6.94176C11.2112 6.92194 11.1884 6.91288 11.1718 6.942C11.1438 6.98855 11.3297 7.0764 11.2727 7.1758C11.2307 7.24909 11.1576 7.2171 11.1088 7.18256C11.0672 7.15313 11.0051 7.08376 11.0456 7.01361L11.1025 7.0539Z" fill="#009440"/>
<path d="M11.4244 7.29039C11.4069 7.31753 11.4218 7.34977 11.4567 7.37742C11.4916 7.40507 11.5162 7.40558 11.5274 7.38816C11.5629 7.33292 11.3774 7.23853 11.4405 7.14231C11.4949 7.05965 11.5778 7.13127 11.6092 7.15616C11.6406 7.18105 11.69 7.24356 11.6462 7.30975L11.593 7.26758C11.6117 7.2385 11.5941 7.20848 11.5662 7.18636C11.5391 7.16493 11.5168 7.15457 11.4988 7.18267C11.4687 7.22753 11.6502 7.32607 11.5886 7.42202C11.5432 7.49277 11.4717 7.45657 11.4246 7.41924C11.3844 7.38744 11.3257 7.31455 11.3694 7.24684L11.4244 7.29039Z" fill="#009440"/>
<path fill-rule="evenodd" clip-rule="evenodd" d="M11.7287 7.67389C11.7567 7.69865 11.7934 7.70866 11.8308 7.70171C11.8681 7.69476 11.903 7.67142 11.9277 7.63683C11.9525 7.60224 11.9651 7.55922 11.9628 7.51725C11.9605 7.47528 11.9435 7.43778 11.9155 7.41302C11.8874 7.38825 11.8507 7.37824 11.8134 7.38519C11.7761 7.39214 11.7412 7.41548 11.7164 7.45008C11.6917 7.48467 11.6791 7.52768 11.6814 7.56966C11.6837 7.61163 11.7007 7.64912 11.7287 7.67389M11.7634 7.62544C11.7799 7.63999 11.8018 7.6453 11.8245 7.64021C11.8471 7.63511 11.8686 7.62004 11.8841 7.59829C11.8997 7.57655 11.9081 7.54992 11.9075 7.52426C11.9068 7.4986 11.8972 7.47601 11.8808 7.46147C11.8643 7.44692 11.8424 7.44161 11.8197 7.4467C11.7971 7.45179 11.7756 7.46687 11.76 7.48861C11.7445 7.51036 11.7361 7.53699 11.7367 7.56265C11.7373 7.58831 11.7469 7.6109 11.7634 7.62544" fill="#009440"/>
<path d="M6.42859 6.22144L6.38687 6.36409L6.45107 6.38727" fill="white"/>
<path d="M6.42859 6.22144L6.47031 6.36409L6.40611 6.38727" fill="white"/>
<path d="M6.5542 6.32507L6.42195 6.34205L6.42469 6.40007" fill="white"/>
<path d="M6.55701 6.30743L6.45976 6.41326L6.40811 6.37023" fill="white"/>
<path d="M6.30017 6.30743L6.39742 6.41326L6.44906 6.37023" fill="white"/>
<path d="M6.30286 6.32507L6.43511 6.34205L6.43236 6.40007" fill="white"/>
<path d="M6.50793 6.49261L6.46847 6.35017L6.40202 6.37356" fill="white"/>
<path d="M6.5083 6.4928L6.39867 6.40744L6.43792 6.34395" fill="white"/>
<path d="M6.34875 6.4928L6.45839 6.40744L6.41913 6.34395" fill="white"/>
<path d="M6.34924 6.49255L6.3887 6.35011L6.45516 6.3735" fill="white"/>
<path d="M6.70715 7.69287L6.66544 7.83553L6.72963 7.85871" fill="white"/>
<path d="M6.70715 7.69287L6.74887 7.83553L6.68467 7.85871" fill="white"/>
<path d="M6.83276 7.79651L6.70051 7.81349L6.70326 7.87151" fill="white"/>
<path d="M6.83557 7.77887L6.73832 7.88469L6.68668 7.84167" fill="white"/>
<path d="M6.57874 7.77887L6.67599 7.88469L6.72763 7.84167" fill="white"/>
<path d="M6.58142 7.79651L6.71367 7.81349L6.71093 7.87151" fill="white"/>
<path d="M6.7865 7.96405L6.74704 7.82161L6.68059 7.84499" fill="white"/>
<path d="M6.78687 7.96423L6.67723 7.87887L6.71649 7.81539" fill="white"/>
<path d="M6.62732 7.96423L6.73695 7.87887L6.6977 7.81539" fill="white"/>
<path d="M6.62781 7.96399L6.66727 7.82154L6.73372 7.84493" fill="white"/>
<path d="M6.32141 8.03217L6.28665 8.15105L6.34014 8.17036" fill="white"/>
<path d="M6.32141 8.03217L6.35618 8.15105L6.30268 8.17036" fill="white"/>
<path d="M6.42615 8.11859L6.31594 8.13274L6.31823 8.18109" fill="white"/>
<path d="M6.42834 8.10388L6.3473 8.19207L6.30427 8.15621" fill="white"/>
<path d="M6.21448 8.10382L6.29552 8.19201L6.33855 8.15615" fill="white"/>
<path d="M6.21667 8.11853L6.32689 8.13268L6.3246 8.18103" fill="white"/>
<path d="M6.38745 8.25812L6.35457 8.13941L6.29919 8.1589" fill="white"/>
<path d="M6.38782 8.2583L6.29646 8.18717L6.32917 8.13426" fill="white"/>
<path d="M6.255 8.2583L6.34637 8.18717L6.31365 8.13426" fill="white"/>
<path d="M6.25525 8.25812L6.28813 8.13941L6.34351 8.1589" fill="white"/>
<path d="M7.01562 7.55713L6.99576 7.62506L7.02633 7.6361" fill="white"/>
<path d="M7.01562 7.55713L7.03549 7.62506L7.00492 7.6361" fill="white"/>
<path d="M7.07544 7.60651L7.01246 7.61459L7.01377 7.64222" fill="white"/>
<path d="M7.07678 7.59808L7.03047 7.64847L7.00588 7.62799" fill="white"/>
<path d="M6.95447 7.59808L7.00078 7.64847L7.02537 7.62799" fill="white"/>
<path d="M6.95581 7.60651L7.01879 7.61459L7.01748 7.64222" fill="white"/>
<path d="M7.05347 7.68622L7.03468 7.61839L7.00303 7.62953" fill="white"/>
<path d="M7.05371 7.68634L7.0015 7.64569L7.0202 7.61546" fill="white"/>
<path d="M6.97766 7.68634L7.02987 7.64569L7.01117 7.61546" fill="white"/>
<path d="M6.97778 7.68622L6.99657 7.61839L7.02822 7.62953" fill="white"/>
<path d="M7.36292 8.06549L7.32815 8.18437L7.38165 8.20369" fill="white"/>
<path d="M7.36292 8.06549L7.39768 8.18437L7.34418 8.20369" fill="white"/>
<path d="M7.46765 8.15192L7.35744 8.16607L7.35973 8.21442" fill="white"/>
<path d="M7.46985 8.13721L7.38881 8.22539L7.34577 8.18954" fill="white"/>
<path d="M7.25598 8.13715L7.33702 8.22533L7.38006 8.18948" fill="white"/>
<path d="M7.25818 8.15186L7.36839 8.166L7.3661 8.21436" fill="white"/>
<path d="M7.42896 8.29144L7.39607 8.17274L7.34069 8.19223" fill="white"/>
<path d="M7.42932 8.29163L7.33796 8.22049L7.37067 8.16759" fill="white"/>
<path d="M7.29651 8.29163L7.38787 8.22049L7.35516 8.16759" fill="white"/>
<path d="M7.29675 8.29144L7.32964 8.17274L7.38501 8.19223" fill="white"/>
<path d="M7.26868 8.43811L7.24087 8.53322L7.28366 8.54867" fill="white"/>
<path d="M7.26868 8.43811L7.29649 8.53322L7.25369 8.54867" fill="white"/>
<path d="M7.35242 8.5072L7.26425 8.51852L7.26608 8.5572" fill="white"/>
<path d="M7.35425 8.49542L7.28941 8.56597L7.25499 8.53729" fill="white"/>
<path d="M7.18298 8.49542L7.24782 8.56597L7.28225 8.53729" fill="white"/>
<path d="M7.18481 8.5072L7.27298 8.51852L7.27115 8.5572" fill="white"/>
<path d="M7.32153 8.6189L7.29523 8.52393L7.25092 8.53953" fill="white"/>
<path d="M7.32178 8.61902L7.24869 8.56211L7.27486 8.51979" fill="white"/>
<path d="M7.21545 8.61902L7.28854 8.56211L7.26237 8.51979" fill="white"/>
<path d="M7.2157 8.61884L7.24201 8.52387L7.28631 8.53947" fill="white"/>
<path d="M9.97717 5.76428L9.93546 5.90694L9.99965 5.93012" fill="white"/>
<path d="M9.97717 5.76428L10.0189 5.90694L9.95469 5.93012" fill="white"/>
<path d="M10.1028 5.86792L9.97053 5.8849L9.97328 5.94292" fill="white"/>
<path d="M10.1056 5.85028L10.0083 5.9561L9.9567 5.91308" fill="white"/>
<path d="M9.84875 5.85028L9.94601 5.9561L9.99765 5.91308" fill="white"/>
<path d="M9.85144 5.86792L9.98369 5.8849L9.98095 5.94292" fill="white"/>
<path d="M10.0565 6.03546L10.0171 5.89302L9.9506 5.91641" fill="white"/>
<path d="M10.0569 6.03564L9.94725 5.95029L9.98651 5.8868" fill="white"/>
<path d="M9.89734 6.03564L10.007 5.95029L9.96772 5.8868" fill="white"/>
<path d="M9.89783 6.0354L9.93729 5.89296L10.0037 5.91634" fill="white"/>
<path d="M11.2072 8.07855L11.1654 8.22121L11.2296 8.24439" fill="white"/>
<path d="M11.2072 8.07855L11.2489 8.22121L11.1847 8.24439" fill="white"/>
<path d="M11.3328 8.18219L11.2005 8.19917L11.2033 8.25719" fill="white"/>
<path d="M11.3356 8.16455L11.2383 8.27037L11.1867 8.22735" fill="white"/>
<path d="M11.0787 8.16455L11.176 8.27037L11.2276 8.22735" fill="white"/>
<path d="M11.0814 8.18219L11.2137 8.19917L11.2109 8.25719" fill="white"/>
<path d="M11.2865 8.34973L11.247 8.20729L11.1806 8.23068" fill="white"/>
<path d="M11.2869 8.34991L11.1772 8.26456L11.2165 8.20107" fill="white"/>
<path d="M11.1273 8.34991L11.237 8.26456L11.1977 8.20107" fill="white"/>
<path d="M11.1278 8.34967L11.1673 8.20723L11.2337 8.23061" fill="white"/>
<path d="M11.6443 8.16193L11.6165 8.25703L11.6593 8.27248" fill="white"/>
<path d="M11.6443 8.16193L11.6721 8.25703L11.6293 8.27248" fill="white"/>
<path d="M11.728 8.23102L11.6399 8.24234L11.6417 8.28102" fill="white"/>
<path d="M11.7299 8.21924L11.665 8.28979L11.6306 8.2611" fill="white"/>
<path d="M11.5586 8.21924L11.6234 8.28979L11.6579 8.2611" fill="white"/>
<path d="M11.5604 8.23102L11.6486 8.24234L11.6468 8.28102" fill="white"/>
<path d="M11.6971 8.34271L11.6708 8.24775L11.6265 8.26334" fill="white"/>
<path d="M11.6974 8.34283L11.6243 8.28593L11.6505 8.24361" fill="white"/>
<path d="M11.5911 8.34283L11.6642 8.28593L11.638 8.24361" fill="white"/>
<path d="M11.5913 8.34265L11.6176 8.24769L11.6619 8.26328" fill="white"/>
<path d="M11.3357 8.41309L11.3009 8.53197L11.3544 8.55128" fill="white"/>
<path d="M11.3357 8.41309L11.3705 8.53197L11.317 8.55128" fill="white"/>
<path d="M11.4404 8.49951L11.3302 8.51366L11.3325 8.56201" fill="white"/>
<path d="M11.4426 8.4848L11.3616 8.57299L11.3185 8.53713" fill="white"/>
<path d="M11.2288 8.48474L11.3098 8.57293L11.3528 8.53707" fill="white"/>
<path d="M11.231 8.49945L11.3412 8.5136L11.3389 8.56195" fill="white"/>
<path d="M11.4017 8.63904L11.3688 8.52033L11.3135 8.53983" fill="white"/>
<path d="M11.4021 8.63922L11.3107 8.56809L11.3435 8.51518" fill="white"/>
<path d="M11.2693 8.63922L11.3606 8.56809L11.3279 8.51518" fill="white"/>
<path d="M11.2695 8.63904L11.3024 8.52033L11.3578 8.53983" fill="white"/>
<path d="M10.5771 9.14642L10.5424 9.26531L10.5959 9.28462" fill="white"/>
<path d="M10.5771 9.14642L10.6119 9.26531L10.5584 9.28462" fill="white"/>
<path d="M10.6819 9.23285L10.5717 9.247L10.574 9.29535" fill="white"/>
<path d="M10.6841 9.21814L10.603 9.30632L10.56 9.27047" fill="white"/>
<path d="M10.4702 9.21808L10.5513 9.30626L10.5943 9.27041" fill="white"/>
<path d="M10.4724 9.23279L10.5826 9.24694L10.5803 9.29529" fill="white"/>
<path d="M10.6432 9.37238L10.6103 9.25367L10.5549 9.27316" fill="white"/>
<path d="M10.6436 9.37256L10.5522 9.30143L10.5849 9.24852" fill="white"/>
<path d="M10.5107 9.37256L10.6021 9.30143L10.5694 9.24852" fill="white"/>
<path d="M10.511 9.37238L10.5439 9.25367L10.5992 9.27316" fill="white"/>
<path d="M10.5729 9.5238L10.5451 9.61891L10.5879 9.63436" fill="white"/>
<path d="M10.5729 9.5238L10.6007 9.61891L10.5579 9.63436" fill="white"/>
<path d="M10.6566 9.5929L10.5684 9.60421L10.5703 9.6429" fill="white"/>
<path d="M10.6584 9.58112L10.5936 9.65166L10.5592 9.62298" fill="white"/>
<path d="M10.4872 9.58112L10.552 9.65166L10.5864 9.62298" fill="white"/>
<path d="M10.489 9.5929L10.5772 9.60421L10.5754 9.6429" fill="white"/>
<path d="M10.6257 9.70459L10.5994 9.60963L10.5551 9.62522" fill="white"/>
<path d="M10.626 9.70471L10.5529 9.64781L10.5791 9.60548" fill="white"/>
<path d="M10.5197 9.70471L10.5927 9.64781L10.5666 9.60548" fill="white"/>
<path d="M10.5199 9.70453L10.5462 9.60957L10.5905 9.62516" fill="white"/>
<path d="M10.89 8.89526L10.8622 8.99037L10.905 9.00582" fill="white"/>
<path d="M10.89 8.89526L10.9178 8.99037L10.875 9.00582" fill="white"/>
<path d="M10.9738 8.96436L10.8856 8.97567L10.8874 9.01436" fill="white"/>
<path d="M10.9756 8.95258L10.9108 9.02312L10.8763 8.99444" fill="white"/>
<path d="M10.8043 8.95258L10.8692 9.02312L10.9036 8.99444" fill="white"/>
<path d="M10.8062 8.96436L10.8943 8.97567L10.8925 9.01436" fill="white"/>
<path d="M10.9429 9.07605L10.9166 8.98109L10.8723 8.99668" fill="white"/>
<path d="M10.9431 9.07617L10.87 9.01927L10.8962 8.97694" fill="white"/>
<path d="M10.8368 9.07617L10.9099 9.01927L10.8837 8.97694" fill="white"/>
<path d="M10.837 9.07599L10.8633 8.98103L10.9076 8.99662" fill="white"/>
<path d="M11.1428 8.69403L11.1081 8.81291L11.1616 8.83223" fill="white"/>
<path d="M11.1428 8.69403L11.1776 8.81291L11.1241 8.83223" fill="white"/>
<path d="M11.2476 8.78046L11.1373 8.79461L11.1396 8.84296" fill="white"/>
<path d="M11.2498 8.76575L11.1687 8.85393L11.1257 8.81808" fill="white"/>
<path d="M11.0359 8.76569L11.1169 8.85387L11.16 8.81802" fill="white"/>
<path d="M11.0381 8.7804L11.1483 8.79454L11.146 8.8429" fill="white"/>
<path d="M11.2089 8.91998L11.176 8.80128L11.1206 8.82077" fill="white"/>
<path d="M11.2092 8.92017L11.1179 8.84903L11.1506 8.79613" fill="white"/>
<path d="M11.0764 8.92017L11.1678 8.84903L11.1351 8.79613" fill="white"/>
<path d="M11.0767 8.91998L11.1095 8.80128L11.1649 8.82077" fill="white"/>
<path d="M10.5643 8.82855L10.5365 8.92366L10.5793 8.93911" fill="white"/>
<path d="M10.5643 8.82855L10.5921 8.92366L10.5493 8.93911" fill="white"/>
<path d="M10.6481 8.89764L10.5599 8.90896L10.5617 8.94764" fill="white"/>
<path d="M10.6499 8.88586L10.5851 8.95641L10.5506 8.92773" fill="white"/>
<path d="M10.4786 8.88586L10.5435 8.95641L10.5779 8.92773" fill="white"/>
<path d="M10.4805 8.89764L10.5686 8.90896L10.5668 8.94764" fill="white"/>
<path d="M10.6172 9.00934L10.5909 8.91437L10.5466 8.92997" fill="white"/>
<path d="M10.6174 9.00946L10.5443 8.95255L10.5705 8.91023" fill="white"/>
<path d="M10.5111 9.00946L10.5842 8.95255L10.558 8.91023" fill="white"/>
<path d="M10.5114 9.00928L10.5377 8.91431L10.582 8.92991" fill="white"/>
<path d="M7.80005 7.01788L7.76528 7.13677L7.81878 7.15608" fill="white"/>
<path d="M7.80005 7.01788L7.83481 7.13677L7.78132 7.15608" fill="white"/>
<path d="M7.90479 7.10431L7.79457 7.11846L7.79686 7.16681" fill="white"/>
<path d="M7.90698 7.0896L7.82594 7.17778L7.78291 7.14193" fill="white"/>
<path d="M7.69312 7.08954L7.77416 7.17772L7.81719 7.14187" fill="white"/>
<path d="M7.69531 7.10425L7.80552 7.1184L7.80323 7.16675" fill="white"/>
<path d="M7.86609 7.24384L7.8332 7.12513L7.77783 7.14462" fill="white"/>
<path d="M7.86646 7.24402L7.77509 7.17289L7.80781 7.11998" fill="white"/>
<path d="M7.73364 7.24402L7.825 7.17289L7.79229 7.11998" fill="white"/>
<path d="M7.73389 7.24384L7.76677 7.12513L7.82215 7.14462" fill="white"/>
<path d="M9.85718 6.72382L9.82937 6.81892L9.87216 6.83437" fill="white"/>
<path d="M9.85718 6.72382L9.88499 6.81892L9.84219 6.83437" fill="white"/>
<path d="M9.94092 6.79291L9.85275 6.80423L9.85458 6.84291" fill="white"/>
<path d="M9.94275 6.78113L9.87792 6.85168L9.84349 6.82299" fill="white"/>
<path d="M9.77148 6.78113L9.83632 6.85168L9.87075 6.82299" fill="white"/>
<path d="M9.77332 6.79291L9.86148 6.80423L9.85965 6.84291" fill="white"/>
<path d="M9.91003 6.9046L9.88373 6.80964L9.83943 6.82523" fill="white"/>
<path d="M9.91028 6.90472L9.83719 6.84782L9.86336 6.80549" fill="white"/>
<path d="M9.80396 6.90472L9.87704 6.84782L9.85087 6.80549" fill="white"/>
<path d="M9.8042 6.90454L9.83051 6.80958L9.87481 6.82517" fill="white"/>
<path d="M9 8.42145L8.95828 8.56411L9.02248 8.58728" fill="white"/>
<path d="M9 8.42145L9.04172 8.56411L8.97752 8.58728" fill="white"/>
<path d="M9.12561 8.52509L8.99336 8.54206L8.9961 8.60009" fill="white"/>
<path d="M9.12842 8.50745L9.03117 8.61327L8.97953 8.57024" fill="white"/>
<path d="M8.87158 8.50745L8.96883 8.61327L9.02047 8.57024" fill="white"/>
<path d="M8.87427 8.52509L9.00652 8.54206L9.00377 8.60009" fill="white"/>
<path d="M9.07935 8.69263L9.03988 8.55018L8.97343 8.57357" fill="white"/>
<path d="M9.07971 8.69281L8.97008 8.60745L9.00934 8.54397" fill="white"/>
<path d="M8.92017 8.69281L9.0298 8.60745L8.99054 8.54397" fill="white"/>
<path d="M8.92065 8.69257L8.96012 8.55012L9.02657 8.57351" fill="white"/>
<path d="M9.36426 7.75122L9.32949 7.8701L9.38299 7.88942" fill="white"/>
<path d="M9.36426 7.75122L9.39902 7.8701L9.34553 7.88942" fill="white"/>
<path d="M9.46899 7.83765L9.35878 7.8518L9.36107 7.90015" fill="white"/>
<path d="M9.47119 7.82294L9.39015 7.91112L9.34711 7.87527" fill="white"/>
<path d="M9.25732 7.82288L9.33837 7.91106L9.3814 7.87521" fill="white"/>
<path d="M9.25952 7.83759L9.36973 7.85173L9.36744 7.90009" fill="white"/>
<path d="M9.4303 7.97717L9.39741 7.85847L9.34204 7.87796" fill="white"/>
<path d="M9.43066 7.97736L9.3393 7.90622L9.37202 7.85332" fill="white"/>
<path d="M9.29785 7.97736L9.38921 7.90622L9.3565 7.85332" fill="white"/>
<path d="M9.2981 7.97717L9.33098 7.85847L9.38636 7.87796" fill="white"/>
<path d="M9 7.43689L8.96524 7.55577L9.01873 7.57509" fill="white"/>
<path d="M9 7.43689L9.03476 7.55577L8.98127 7.57509" fill="white"/>
<path d="M9.10474 7.52332L8.99453 7.53746L8.99681 7.58582" fill="white"/>
<path d="M9.10693 7.50861L9.02589 7.59679L8.98286 7.56094" fill="white"/>
<path d="M8.89307 7.50854L8.97411 7.59673L9.01714 7.56088" fill="white"/>
<path d="M8.89526 7.52325L9.00547 7.5374L9.00319 7.58575" fill="white"/>
<path d="M9.06604 7.66284L9.03316 7.54414L8.97778 7.56363" fill="white"/>
<path d="M9.06641 7.66302L8.97504 7.59189L9.00776 7.53899" fill="white"/>
<path d="M8.93359 7.66302L9.02496 7.59189L8.99224 7.53899" fill="white"/>
<path d="M8.93384 7.66284L8.96672 7.54414L9.0221 7.56363" fill="white"/>
<path d="M8.68286 7.77618L8.65505 7.87129L8.69785 7.88674" fill="white"/>
<path d="M8.68286 7.77618L8.71067 7.87129L8.66788 7.88674" fill="white"/>
<path d="M8.7666 7.84528L8.67843 7.85659L8.68026 7.89528" fill="white"/>
<path d="M8.76843 7.8335L8.7036 7.90404L8.66917 7.87536" fill="white"/>
<path d="M8.59717 7.8335L8.662 7.90404L8.69643 7.87536" fill="white"/>
<path d="M8.599 7.84528L8.68717 7.85659L8.68534 7.89528" fill="white"/>
<path d="M8.73572 7.95697L8.70941 7.86201L8.66511 7.8776" fill="white"/>
<path d="M8.73596 7.95709L8.66287 7.90019L8.68904 7.85786" fill="white"/>
<path d="M8.62964 7.95709L8.70273 7.90019L8.67656 7.85786" fill="white"/>
<path d="M8.62988 7.95691L8.65619 7.86195L8.70049 7.87754" fill="white"/>
<path d="M8.84143 8.04761L8.82157 8.11554L8.85213 8.12658" fill="white"/>
<path d="M8.84143 8.04761L8.8613 8.11554L8.83073 8.12658" fill="white"/>
<path d="M8.90125 8.09698L8.83827 8.10507L8.83958 8.1327" fill="white"/>
<path d="M8.90259 8.08856L8.85628 8.13895L8.83169 8.11847" fill="white"/>
<path d="M8.78027 8.08856L8.82658 8.13895L8.85117 8.11847" fill="white"/>
<path d="M8.78162 8.09698L8.84459 8.10507L8.84329 8.1327" fill="white"/>
<path d="M8.87927 8.1767L8.86048 8.10887L8.82884 8.12" fill="white"/>
<path d="M8.87952 8.17682L8.82731 8.13617L8.846 8.10594" fill="white"/>
<path d="M8.80347 8.17682L8.85567 8.13617L8.83698 8.10594" fill="white"/>
<path d="M8.80359 8.1767L8.82238 8.10887L8.85402 8.12" fill="white"/>
<path d="M9.94287 9.23212L9.90811 9.351L9.9616 9.37031" fill="white"/>
<path d="M9.94287 9.23212L9.97764 9.351L9.92414 9.37031" fill="white"/>
<path d="M10.0476 9.31854L9.9374 9.33269L9.93969 9.38104" fill="white"/>
<path d="M10.0498 9.30383L9.96876 9.39202L9.92573 9.35617" fill="white"/>
<path d="M9.83594 9.30377L9.91698 9.39196L9.96001 9.3561" fill="white"/>
<path d="M9.83813 9.31848L9.94835 9.33263L9.94606 9.38098" fill="white"/>
<path d="M10.0089 9.45807L9.97603 9.33936L9.92065 9.35886" fill="white"/>
<path d="M10.0093 9.45825L9.91791 9.38712L9.95063 9.33422" fill="white"/>
<path d="M9.87646 9.45825L9.96783 9.38712L9.93511 9.33422" fill="white"/>
<path d="M9.87671 9.45807L9.90959 9.33936L9.96497 9.35886" fill="white"/>
<path d="M10.2129 8.94763L10.1851 9.04274L10.2279 9.05819" fill="white"/>
<path d="M10.2129 8.94763L10.2407 9.04274L10.1979 9.05819" fill="white"/>
<path d="M10.2966 9.01672L10.2085 9.02804L10.2103 9.06672" fill="white"/>
<path d="M10.2985 9.00494L10.2336 9.07549L10.1992 9.04681" fill="white"/>
<path d="M10.1272 9.00494L10.192 9.07549L10.2265 9.04681" fill="white"/>
<path d="M10.129 9.01672L10.2172 9.02804L10.2154 9.06672" fill="white"/>
<path d="M10.2657 9.12842L10.2394 9.03345L10.1951 9.04905" fill="white"/>
<path d="M10.266 9.12854L10.1929 9.07163L10.2191 9.02931" fill="white"/>
<path d="M10.1597 9.12854L10.2328 9.07163L10.2066 9.02931" fill="white"/>
<path d="M10.1599 9.12836L10.1862 9.03339L10.2305 9.04899" fill="white"/>
<path d="M9.69434 8.86188L9.66652 8.95698L9.70932 8.97243" fill="white"/>
<path d="M9.69434 8.86188L9.72215 8.95698L9.67935 8.97243" fill="white"/>
<path d="M9.77808 8.93097L9.68991 8.94229L9.69174 8.98097" fill="white"/>
<path d="M9.77991 8.91919L9.71507 8.98974L9.68065 8.96106" fill="white"/>
<path d="M9.60864 8.91919L9.67348 8.98974L9.7079 8.96106" fill="white"/>
<path d="M9.61047 8.93097L9.69864 8.94229L9.69681 8.98097" fill="white"/>
<path d="M9.74719 9.04266L9.72089 8.9477L9.67658 8.96329" fill="white"/>
<path d="M9.74744 9.04279L9.67435 8.98588L9.70052 8.94356" fill="white"/>
<path d="M9.64111 9.04279L9.7142 8.98588L9.68803 8.94356" fill="white"/>
<path d="M9.64136 9.0426L9.66766 8.94764L9.71197 8.96323" fill="white"/>
<path d="M7.73572 8.70715L7.694 8.84981L7.7582 8.87299" fill="white"/>
<path d="M7.73572 8.70715L7.77744 8.84981L7.71324 8.87299" fill="white"/>
<path d="M7.86133 8.81079L7.72908 8.82777L7.73182 8.88579" fill="white"/>
<path d="M7.86414 8.79315L7.76688 8.89897L7.71524 8.85595" fill="white"/>
<path d="M7.6073 8.79315L7.70455 8.89897L7.75619 8.85595" fill="white"/>
<path d="M7.60999 8.81079L7.74224 8.82777L7.73949 8.88579" fill="white"/>
<path d="M7.81506 8.97833L7.7756 8.83589L7.70915 8.85928" fill="white"/>
<path d="M7.81543 8.97852L7.70579 8.89316L7.74505 8.82967" fill="white"/>
<path d="M7.65588 8.97852L7.76552 8.89316L7.72626 8.82967" fill="white"/>
<path d="M7.65637 8.97827L7.69583 8.83583L7.76229 8.85922" fill="white"/>
<path d="M8.99988 9.68811L8.98597 9.73566L9.00737 9.74339" fill="white"/>
<path d="M8.99988 9.68811L9.01378 9.73566L8.99238 9.74339" fill="white"/>
<path d="M9.04187 9.72266L8.99779 9.72832L8.9987 9.74766" fill="white"/>
<path d="M9.04285 9.7168L9.01043 9.75207L8.99322 9.73773" fill="white"/>
<path d="M8.95728 9.71674L8.98969 9.75201L9.00691 9.73767" fill="white"/>
<path d="M8.95813 9.72266L9.00221 9.72832L9.0013 9.74766" fill="white"/>
<path d="M9.02649 9.7785L9.01334 9.73102L8.99118 9.73882" fill="white"/>
<path d="M9.02661 9.77856L8.99007 9.75011L9.00315 9.72895" fill="white"/>
<path d="M8.97339 9.77856L9.00993 9.75011L8.99685 9.72895" fill="white"/>
<path d="M8.97363 9.7785L8.98679 9.73102L9.00894 9.73882" fill="white"/>
</g>
<defs>
<clipPath id="clip0_31_353">
<rect width="18" height="14" fill="white"/>
</clipPath>
</defs>
</svg>
